<svg xmlns="http://www.w3.org/2000/svg" width="232" height="50" fill="none">
  <path fill="#fff" d="M21.1 4.3h4.1L15 33H9.6L.3 4.3h4l6 18.6a47.8 47.8 0 0 1 1.6 6.7h.8a70.5 70.5 0 0 1 1.9-6.7L21 4.3Zm15 29.2c-2.6 0-4.4-.7-5.6-2.1-1.2-1.4-1.7-3.6-1.7-6.5V12h4v13c0 1.8.3 3.2 1 4.2.5 1 1.6 1.6 3.1 1.6 2 0 3.7-.5 5.2-1.6V11.8h4.1v17l1 4.5h-2a2 2 0 0 1-1-.2l-.8-.8-.5-1.1h-.7c-.8.9-1.7 1.5-2.6 1.8-.9.3-2 .5-3.5.5Zm21.3-6.8a54.1 54.1 0 0 1-3 3.2l.3.6a99.6 99.6 0 0 1 3.7-.5H68v3H50.1v-3L60.4 18a38 38 0 0 1 3-3.2l-.3-.7a30.6 30.6 0 0 0-2.3.6h-9.5v-3h16.3v3l-10.2 12Zm22 6.8c-2.6 0-4.4-.7-5.6-2.1-1.2-1.4-1.8-3.6-1.8-6.5V12h4.1v13c0 1.8.3 3.2.9 4.2.6 1 1.7 1.6 3.2 1.6 2 0 3.7-.5 5.2-1.6V11.8h4.1v17l1 4.5h-2a2 2 0 0 1-1-.2c-.3-.2-.6-.4-.8-.8l-.6-1.1h-.6c-.9.9-1.7 1.5-2.6 1.8-.9.3-2 .5-3.6.5Zm33.3-5.5c0 .9 0 1.6.3 2 .2.3.6.6 1.3.8l-.6 2.5-.3.1h-.7c-.8 0-1.4 0-1.9-.3-.4-.2-.8-.7-1.1-1.4l-.7-1h-.6a7 7 0 0 1-2.6 2.1 8 8 0 0 1-3.4.7c-2.1 0-3.8-.6-5-1.6-1.3-1.2-1.9-2.8-1.9-4.8 0-2.2.7-3.8 2-4.8 1.4-1 3.6-1.7 6.5-1.9l4.6-.4v-1.3c0-1.6-.3-2.8-1-3.5-.7-.7-2-1-4-1a26 26 0 0 0-5.7.8l-.8-2.4 3.5-.9a22 22 0 0 1 3.7-.3c2.8 0 4.9.5 6.3 1.6 1.4 1.1 2 2.9 2 5.3V28Zm-8-5.1c-3.3.2-5 1.5-5 4s1.3 3.8 3.9 3.8a6 6 0 0 0 3.6-1c1-.7 1.4-1.9 1.4-3.5v-3.6l-3.9.3Zm19.1-20.2V33h-4V2.7h4Z"/>
  <path fill="red" d="M149.7 19.6a18.7 18.7 0 0 0 2.4.1c1 0 1.8-.1 2.6-.4.8-.3 1.5-.7 2.1-1.2.6-.6 1-1.2 1.4-2 .3-.8.5-1.8.5-2.8 0-2.2-.6-3.8-2-4.8-1.2-1-2.8-1.6-4.9-1.6h-2v12.7ZM141 33v-1.9l3.8-.9V7.1l-3.8-1V4.4h11c8 0 12 3 12 9 0 3-1 5.3-3.2 6.8a14 14 0 0 1-8.2 2.2c-1 0-1.9 0-2.8-.2v8.1l5 1V33H141Zm24.5 0v-1.8l3.5-.8V3.5h-3.5V1.8l6.5-1.6h1.9v30.2l3.5.8V33h-12Zm13.3-18.7v-1.8h8.3v14.1c0 2.8 1.2 4.1 3.6 4.1a8 8 0 0 0 5.2-2V15l-2.7-.8v-1.8h7.6v17.8h3.2v1.4c-.7.6-1.4 1-2.2 1.4-.8.3-1.6.5-2.4.5-.6 0-1.2-.1-1.7-.4-.4-.2-.8-.5-1-.8l-.6-.9-.2-.6a10.7 10.7 0 0 1-7 2.7c-2.1 0-3.8-.6-5-1.7a6.5 6.5 0 0 1-1.6-4.7V15l-3.5-.8Zm28 18.4v-5.9h1.9l1.5 4.3c1 .2 2 .3 3.2.3 1.8 0 3-.3 3.7-.7.8-.5 1.1-1.2 1.1-2.3 0-.9-.4-1.6-1.2-2.1-.7-.6-2.1-1.3-4-2-1.9-.8-3.3-1.7-4.3-2.7-1-1.1-1.5-2.4-1.5-4 0-1.9.7-3.3 2.3-4.2 1.5-1 3.5-1.5 6-1.5 2.2 0 4.1.2 5.9.8v5.5h-1.7l-1.4-3.8c-.8-.2-1.7-.3-2.8-.3-1.4 0-2.5.2-3 .7-.7.4-1 1-1 2 0 .5.2 1 .6 1.4l1.3 1 2.3 1c2.5 1 4.3 2.1 5.4 3.2 1 1 1.6 2.4 1.6 4 0 2-.8 3.6-2.4 4.7-1.6 1-3.7 1.5-6.3 1.5-2.6 0-5-.3-7.2-1Z"/>
  <path fill="#fff" d="M143.1 38.3h2.4c1.2 0 2 .3 2.6 1 .6.7 1 1.6 1 2.9 0 1.2-.4 2.1-1 2.8-.5.7-1.4 1-2.6 1H143v-7.7Zm2.4 6.8c.9 0 1.5-.2 1.8-.8.4-.5.6-1.2.6-2.1 0-1-.2-1.7-.6-2.3-.3-.5-1-.8-1.8-.8h-1.3v6h1.3Zm5.4-4c.4-.6 1-1 1.9-1 1.5 0 2.3 1 2.3 2.9v.4h-3.7c0 1.3.5 2 1.6 2a5 5 0 0 0 1.7-.4l.2.7a5 5 0 0 1-2 .4c-.9 0-1.5-.2-2-.8-.4-.5-.6-1.2-.6-2.1 0-1 .2-1.6.6-2.2Zm.8.3c-.1.3-.3.8-.3 1.3h2.6c0-.5 0-1-.2-1.3-.2-.3-.6-.5-1-.5-.5 0-.9.2-1 .5Zm8.7 3c0 .6-.2 1-.6 1.3-.4.3-.9.4-1.5.4s-1.3-.1-2-.5l.3-.7.8.4h.8l.8-.1c.3-.1.4-.3.4-.6l-.2-.5c-.1-.2-.4-.3-.7-.4l-.7-.3-1-.6c-.1-.2-.3-.6-.3-1 0-.5.2-.9.6-1.2.4-.3.9-.4 1.5-.4l1.7.3-.3.7-1.4-.3c-.7 0-1 .3-1 .8 0 .2 0 .4.2.5l.7.4.7.3 1 .6.2 1Zm1.5-6 .2-.5.5-.2c.2 0 .4 0 .5.2l.2.5c0 .2 0 .4-.2.5l-.5.2c-.2 0-.3 0-.5-.2a.7.7 0 0 1-.2-.5Zm.2 2h1V46h-1v-5.7Zm6.4 5.8a3.2 3.2 0 0 1 .2-.9l-.2-.1-.7.7c-.3.2-.6.2-1 .2a2 2 0 0 1-1.6-.7c-.4-.6-.6-1.3-.6-2.2 0-1 .2-1.7.7-2.2.4-.5 1-.8 2-.8l2.3.3v5.8a2 2 0 0 1-1.2 1.9l-1.3.2c-.8 0-1.6-.1-2.3-.5l.3-.7a12.2 12.2 0 0 0 1 .4h.7c.6 0 1 0 1.2-.3.3-.3.5-.7.5-1.1Zm-1.3-.8.9-.3c.3-.2.4-.5.4-1v-3a7.4 7.4 0 0 0-1.2-.2c-.6 0-1 .2-1.2.6a5.9 5.9 0 0 0-.2 2.8c0 .4.2.6.4.8.2.2.5.3.9.3Zm4.5-5.2.3.1.2.2.1.3h.2l.7-.5.8-.1c.8 0 1.4.2 1.7.5.4.4.6 1 .6 1.8V46H175v-3.5c0-.5 0-.9-.2-1.2-.2-.2-.5-.4-1-.4-.3 0-.6 0-.8.2a2 2 0 0 0-.6.3V46h-1v-4.6l-.3-1.2h.5Zm9.4 4.5 1 .4 1.2.2c.4 0 .7-.1 1-.3.2-.2.3-.5.3-.9a1 1 0 0 0-.3-.8l-.9-.6-1.1-.5c-.4-.2-.8-.4-1-.7-.3-.3-.4-.7-.4-1.2 0-.4.2-.8.4-1.2.2-.3.6-.5 1-.7l1.2-.2h1l1.1.4-.3.8c-.7-.3-1.3-.4-1.8-.4-1 0-1.4.4-1.4 1 0 .3 0 .5.2.7l.8.5 1.3.6c1 .5 1.4 1.2 1.4 2a2.1 2.1 0 0 1-1.3 2.1c-.4.2-.8.2-1.2.2L182 46a8 8 0 0 1-1.2-.5l.3-.8Zm6.5-5.1.2-.5.4-.2h.4v1.4h1.6v.8h-1.6v3.3l.1.7c.1.2.4.3.8.3l.7-.1.2.7h-.5l-.6.1c-.7 0-1.1-.1-1.4-.4-.3-.3-.4-.8-.4-1.5v-3.1h-.9v-.4l.9-.4.1-.7Zm6 6.5c-.7 0-1.2-.2-1.5-.5-.3-.4-.5-1-.5-1.8v-3.5h1.1v3.5c0 .5.1.9.3 1.2.1.2.4.4.8.4.5 0 1-.2 1.4-.4v-4.7h1.1V45l.3 1.2h-.8l-.2-.3-.2-.3h-.2c-.2.3-.4.4-.7.5l-1 .1Zm6.6 0c-.8 0-1.4-.2-1.8-.7-.4-.6-.6-1.3-.6-2.2 0-1 .3-1.7.7-2.2.5-.5 1.1-.8 2-.8h.5l.5.2h.2V38h1.1v7l.3 1.2h-.5a.5.5 0 0 1-.5-.3l-.2-.3h-.1c-.2.3-.4.4-.7.5l-1 .1Zm-1.2-3c0 .8.1 1.3.3 1.7.2.4.6.6 1.2.6l.7-.1.5-.4v-3.7l-.2-.1-.4-.1a3 3 0 0 0-.6 0c-.6 0-1 .1-1.2.5-.2.4-.3 1-.3 1.7Zm5.5-4.7c0-.2 0-.4.2-.5l.5-.2c.1 0 .3 0 .4.2.2.1.2.3.2.5s0 .4-.2.5l-.4.2c-.2 0-.4 0-.5-.2a.7.7 0 0 1-.2-.5Zm.1 2h1.1V46h-1.1v-5.7Zm7.9 2.8c0 1-.3 1.6-.7 2.2-.4.5-1.1.7-2 .7-.9 0-1.6-.2-2-.7-.4-.6-.7-1.3-.7-2.2 0-1 .3-1.7.7-2.2.4-.5 1.1-.8 2-.8.9 0 1.6.3 2 .8.4.5.7 1.2.7 2.2Zm-2.7 2.2c1 0 1.5-.8 1.5-2.2 0-1.5-.5-2.3-1.5-2.3-.5 0-1 .2-1.1.7-.3.4-.4.9-.4 1.6 0 .6.1 1.2.4 1.6.2.4.6.6 1.1.6Zm8-1c0 .6-.2 1-.6 1.3-.4.3-.9.4-1.5.4-.7 0-1.3-.1-2-.5l.3-.7.8.4h.8l.8-.1c.2-.1.3-.3.3-.6l-.1-.5-.7-.4-.7-.3-1-.6c-.2-.2-.3-.6-.3-1 0-.5.2-.9.6-1.2.4-.3.9-.4 1.5-.4l1.7.3-.3.7-1.5-.3c-.6 0-1 .3-1 .8l.2.5.8.4.7.3 1 .6.2 1Z"/>
</svg>
